#!OML:ASF E:\basketball\basketball\Project 1\Capture day 1\Session 1\Subject.ASF
:FULLY-SPECIFIED
:DEGREES
101
root -23.299 14.0856 4.19958 15.2529 13.8559 0.414081
lowerback 17.2619 7.66436 -3.75679
upperback 10.0609 9.48391 -3.64804
thorax 1.29832 4.73571 -3.25354
lowerneck 0.413347 -10.8221 -18.7857
upperneck -18.7076 -12.3179 27.3163
head -2.11151 -6.62714 11.9795
rclavicle 1.86858e-014 -1.90833e-014
rhumerus -38.192 4.50895 -90.3663
rradius 65.3955
rwrist -28.8648
rhand -18.1415 23.6393
rfingers 7.12502
rthumb 8.13378 -6.18414
lclavicle 1.86858e-014 -1.90833e-014
lhumerus -47.1261 26.0751 52.8759
lradius 82.2292
lwrist 62.847
lhand 9.56022 42.6403
lfingers 7.12502
lthumb 34.7091 69.2638
rfemur 27.853 -1.03212 28.4958
rtibia 22.7483
rfoot 3.76041 -6.2125
rtoes -25.1515
lfemur -63.8327 0.609945 -8.28961
ltibia 50.2314
lfoot 3.23476 -10.0248
ltoes -12.5724
102
root -23.2122 14.0593 4.6074 14.5749 13.5814 0.361352
lowerback 17.744 7.90765 -3.91844
upperback 10.3058 9.75103 -3.53855
thorax 1.28641 4.85961 -3.14558
lowerneck 0.339601 -11.1815 -19.0437
upperneck -18.7841 -12.7836 27.7728
head -1.93867 -6.87224 12.1269
rclavicle 1.80894e-014 -2.36554e-014
rhumerus -39.3556 4.732 -90.2753
rradius 66.0475
rwrist -29.2497
rhand -18.2172 23.6746
rfingers 7.12502
rthumb 8.06072 -6.15169
lclavicle 1.80894e-014 -2.36554e-014
lhumerus -49.6161 26.4208 52.7897
lradius 83.7008
lwrist 65.221
lhand 10.6964 42.5997
lfingers 7.12502
lthumb 35.7865 68.9684
rfemur 26.475 -2.77292 27.7913
rtibia 28.5382
rfoot 3.0385 -7.57588
rtoes -23.9099
lfemur -63.3376 -0.0269567 -8.13892
ltibia 53.269
lfoot -0.153799 -8.05068
ltoes -21.8823
103
root -23.1188 13.9727 4.97721 14.2045 13.2227 0.941126
lowerback 18.1793 8.15504 -4.64244
upperback 10.5792 9.94242 -3.6525
thorax 1.28454 4.92856 -2.95533
lowerneck 0.0034821 -11.5106 -18.4112
upperneck -19.0446 -13.1197 27.7957
head -1.92022 -7.06717 11.9738
rclavicle -2.127e-014 -7.35503e-015
rhumerus -40.1488 4.90795 -90.2197
rradius 66.4814
rwrist -29.606
rhand -18.2253 23.703
rfingers 7.12502
rthumb 8.05289 -6.12358
lclavicle -2.127e-014 -7.35503e-015
lhumerus -51.3547 26.8213 53.1561
lradius 85.0279
lwrist 66.6534
lhand 11.0197 41.8353
lfingers 7.12502
lthumb 36.0928 68.1289
rfemur 24.6124 -4.55941 26.2647
rtibia 34.8867
rfoot 2.16311 -8.55434
rtoes -25.0656
lfemur -63.0261 -0.741844 -8.38549
ltibia 56.9082
lfoot -3.53272 -9.43533
ltoes -19.3338
104
root -23.0322 13.8677 5.32844 14.0055 12.8143 1.87745
lowerback 18.7334 8.57368 -5.584
upperback 10.75 10.295 -4.0818
thorax 1.14646 5.08192 -3.04054
lowerneck 0.176294 -11.8472 -17.2638
upperneck -19.8548 -13.3919 28.1362
head -2.16629 -7.32636 11.9312
rclavicle -4.79071e-014 1.0794e-013
rhumerus -40.6651 3.70088 -90.2719
rradius 66.4875
rwrist -28.3952
rhand -18.297 23.7626
rfingers 7.12502
rthumb 7.98372 -6.06661
lclavicle -4.79071e-014 1.0794e-013
lhumerus -52.1468 26.8048 53.5728
lradius 86.1117
lwrist 68.2607
lhand 12.0286 41.9717
lfingers 7.12502
lthumb 37.0478 68.0238
rfemur 22.3206 -6.2968 24.3389
rtibia 41.5838
rfoot 1.17869 -9.40077
rtoes -26.7442
lfemur -62.6179 -1.75823 -8.91839
ltibia 60.1036
lfoot -6.81302 -8.31327
ltoes -32.6721
105
root -22.9553 13.816 5.6911 13.7149 12.4961 2.70358
lowerback 19.3371 8.84078 -6.85508
upperback 10.9361 10.3797 -4.03331
thorax 0.848532 5.06546 -2.42133
lowerneck 0.6595 -11.9483 -17.1202
upperneck -20.7683 -13.424 28.4261
head -2.47841 -7.42258 12.1106
rclavicle -7.55382e-015 8.15017e-015
rhumerus -41.0628 3.03276 -89.5491
rradius 66.161
rwrist -25.9849
rhand -18.3249 23.7579
rfingers 7.12502
rthumb 7.95675 -6.07232
lclavicle -7.55382e-015 8.15017e-015
lhumerus -53.4249 27.5511 54.2905
lradius 87.2792
lwrist 69.4887
lhand 14.0805 42.8319
lfingers 7.12502
lthumb 38.9855 68.3561
rfemur 19.8821 -8.20343 22.4299
rtibia 48.1428
rfoot 0.286317 -9.66021
rtoes -26.9962
lfemur -61.6473 -2.34613 -9.60522
ltibia 62.5246
lfoot -10.2217 -7.60915
ltoes -36.2678
106
root -22.8909 13.8359 6.0842 13.5381 12.0438 3.35804
lowerback 19.7711 9.25127 -7.77737
upperback 11.1406 10.7137 -4.14677
thorax 0.745137 5.19483 -2.18136
lowerneck 0.976786 -12.2427 -16.3682
upperneck -21.7469 -13.6403 28.7407
head -2.78807 -7.6498 12.1694
rclavicle -4.79071e-014 6.75868e-014
rhumerus -41.0642 1.9856 -89.1127
rradius 65.8025
rwrist -24.6566
rhand -18.3188 23.7638
rfingers 7.12502
rthumb 7.96266 -6.06623
lclavicle -4.79071e-014 6.75868e-014
lhumerus -53.3122 27.4952 55.5201
lradius 88.4306
lwrist 70.8408
lhand 15.5324 43.7654
lfingers 7.12502
lthumb 40.3525 68.8841
rfemur 17.2231 -10.017 20.6579
rtibia 54.1122
rfoot -0.0558002 -9.29722
rtoes -27.1366
lfemur -60.0702 -2.36798 -10.5732
ltibia 64.0434
lfoot -12.8125 -7.28739
ltoes -35.4315
107
root -22.7761 13.87 6.54082 13.64 10.1969 3.76455
lowerback 18.483 9.73096 -9.11589
upperback 11.5375 11.3176 -4.16101
thorax 1.60706 5.40276 -1.40023
lowerneck 1.10291 -12.3193 -16.7922
upperneck -22.485 -13.6338 29.2491
head -2.9224 -7.68133 12.4919
rclavicle 3.63776e-014 -9.16397e-014
rhumerus -40.638 1.81959 -88.353
rradius 65.2528
rwrist -23.4307
rhand -18.2633 23.7044
rfingers 7.12502
rthumb 8.01619 -6.12356
lclavicle 3.63776e-014 -9.16397e-014
lhumerus -53.562 28.3481 56.9618
lradius 90.0258
lwrist 72.0024
lhand 16.1285 45.0266
lfingers 7.12502
lthumb 40.9128 69.9706
rfemur 14.2794 -10.534 18.4029
rtibia 59.5434
rfoot -0.603338 -8.2324
rtoes -25.6485
lfemur -57.9845 -1.69708 -11.6419
ltibia 65.0715
lfoot -15.3969 -6.18259
ltoes -33.4344
108
root -22.6692 13.9114 6.98909 13.4841 7.92881 3.98843
lowerback 17.5221 10.3081 -10.0465
upperback 11.8778 12.0894 -4.47271
thorax 2.36487 5.71944 -1.21899
lowerneck 0.849135 -12.4755 -16.9938
upperneck -22.9273 -13.6718 30.089
head -2.87021 -7.74649 12.8337
rclavicle 1.44119e-013 -6.63941e-014
rhumerus -39.7763 0.734184 -87.9678
rradius 64.4225
rwrist -21.9514
rhand -18.2116 23.5894
rfingers 7.12502
rthumb 8.06609 -6.23667
lclavicle 1.44119e-013 -6.63941e-014
lhumerus -53.6157 29.3819 58.3706
lradius 92.2626
lwrist 72.0874
lhand 17.0676 45.565
lfingers 7.12502
lthumb 41.7942 70.2236
rfemur 11.4114 -10.5159 16.3714
rtibia 64.586
rfoot -1.30469 -7.13714
rtoes -22.8042
lfemur -55.2119 -1.13458 -12.4362
ltibia 65.671
lfoot -18.3336 -3.93211
ltoes -35.7265
109
root -22.5547 13.9535 7.4173 13.4311 6.07537 4.2531
lowerback 16.8252 10.6885 -10.3524
upperback 11.9682 12.6559 -4.98444
thorax 2.87299 5.98801 -1.57374
lowerneck 0.622611 -12.5656 -16.6975
upperneck -22.8848 -13.6972 30.5511
head -2.77899 -7.80371 12.9212
rclavicle 8.36883e-014 -3.27995e-014
rhumerus -39.1896 0.10422 -88.1623
rradius 63.6379
rwrist -21.8172
rhand -18.2044 23.5449
rfingers 7.12502
rthumb 8.07304 -6.2809
lclavicle 8.36883e-014 -3.27995e-014
lhumerus -52.5805 28.9152 59.97
lradius 94.0216
lwrist 72.0635
lhand 17.9204 44.9828
lfingers 7.12502
lthumb 42.5931 69.371
rfemur 8.21819 -10.8138 14.4718
rtibia 69.4494
rfoot -2.02903 -5.66636
rtoes -19.5049
lfemur -52.884 -0.838352 -13.2033
ltibia 66.2692
lfoot -20.9232 -2.75294
ltoes -34.7267
110
root -22.4356 13.9837 7.81587 13.6313 4.71098 4.26327
lowerback 16.0378 10.8715 -10.3214
upperback 11.8891 13.0143 -5.19381
thorax 3.22848 6.16347 -1.735
lowerneck 0.850106 -12.5666 -16.745
upperneck -22.8167 -13.7136 30.8259
head -2.75641 -7.84585 13.0416
rclavicle -2.3059e-014 7.03698e-014
rhumerus -38.9878 1.09739 -88.5134
rradius 63.288
rwrist -24.527
rhand -18.2409 23.5345
rfingers 7.12502
rthumb 8.03788 -6.29261
lclavicle -2.3059e-014 7.03698e-014
lhumerus -51.4458 28.2953 61.8183
lradius 95.9957
lwrist 71.7965
lhand 19.2229 44.5378
lfingers 7.12502
lthumb 43.8105 68.491
rfemur 4.47477 -11.4859 13.1413
rtibia 74.1091
rfoot -2.63312 -3.89067
rtoes -18.292
lfemur -51.0351 -0.868177 -13.7245
ltibia 66.6142
lfoot -23.0542 -1.86851
ltoes -32.4525
111
root -22.3225 14.0119 8.19808 13.9207 3.57537 4.22238
lowerback 15.3675 10.7938 -9.66451
upperback 11.7633 13.104 -5.7561
thorax 3.69522 6.26372 -2.53629
lowerneck 1.22802 -12.5118 -16.346
upperneck -23.115 -13.5478 31.2362
head -2.93359 -7.861 13.2092
rclavicle 1.90833e-014 -1.59028e-014
rhumerus -38.5312 1.46566 -89.2671
rradius 63.1025
rwrist -26.7214
rhand -18.2601 23.5072
rfingers 7.12502
rthumb 8.01926 -6.32067
lclavicle 1.90833e-014 -1.59028e-014
lhumerus -49.5743 27.4556 63.0838
lradius 97.8216
lwrist 71.9541
lhand 20.9694 43.7592
lfingers 7.12502
lthumb 45.437 67.0845
rfemur 0.52149 -12.2685 12.2149
rtibia 78.3396
rfoot -3.24165 -2.04655
rtoes -19.2576
lfemur -49.2782 -0.568546 -14.3897
ltibia 66.5768
lfoot -24.7717 -1.29159
ltoes -30.3394
112
root -22.2078 14.0765 8.6026 14.0725 2.19874 4.20955
lowerback 14.6696 10.7659 -9.00188
upperback 11.6646 13.2595 -6.27376
thorax 4.20846 6.39699 -3.29483
lowerneck 1.85159 -12.3733 -16.2181
upperneck -23.6119 -13.2635 31.736
head -3.20718 -7.82667 13.5195
rclavicle -9.54166e-015 -1.92821e-014
rhumerus -38.3063 2.10611 -89.9776
rradius 63.2787
rwrist -29.3927
rhand -18.3091 23.4133
rfingers 7.12502
rthumb 7.97199 -6.41641
lclavicle -9.54166e-015 -1.92821e-014
lhumerus -47.157 26.274 64.611
lradius 99.8614
lwrist 70.6821
lhand 20.4995 45.219
lfingers 7.12502
lthumb 45.0001 68.7185
rfemur -3.21073 -12.7014 11.342
rtibia 81.8137
rfoot -3.87385 0.0105014
rtoes -19.6251
lfemur -46.8708 -0.29846 -15.257
ltibia 65.9236
lfoot -26.4401 0.0736401
ltoes -30.035
113
root -22.2006 14.1735 9.00138 13.3466 0.261849 4.78723
lowerback 15.0773 11.441 -10.4485
upperback 11.6309 13.8698 -6.48586
thorax 3.74513 6.62689 -2.99229
lowerneck 2.5218 -12.2975 -16.1476
upperneck -24.1593 -13.0783 32.1495
head -3.48803 -7.83694 13.8093
rclavicle -3.47873e-014 3.73715e-014
rhumerus -38.2305 2.35642 -90.4772
rradius 63.7322
rwrist -31.9982
rhand -18.2725 23.3464
rfingers 7.12502
rthumb 8.00731 -6.48189
lclavicle -3.47873e-014 3.73715e-014
lhumerus -44.1677 24.7854 66.3324
lradius 101.705
lwrist 69.5129
lhand 22.2535 44.4299
lfingers 7.12502
lthumb 46.6283 67.2582
rfemur -5.89749 -12.1741 10.7669
rtibia 84.4435
rfoot -4.56254 1.13448
rtoes -20.7589
lfemur -42.851 1.81506 -16.6439
ltibia 64.3574
lfoot -27.765 0.408124
ltoes -30.785
114
root -22.1743 14.2809 9.40188 12.8932 -1.4777 5.16993
lowerback 15.0465 11.8507 -11.3502
upperback 11.6116 14.277 -6.68623
thorax 3.61705 6.78087 -2.83576
lowerneck 2.50621 -12.19 -15.7341
upperneck -24.1633 -12.8775 32.1003
head -3.58271 -7.76681 13.7473
rclavicle -2.8625e-014 5.66536e-014
rhumerus -38.0289 2.75252 -90.8629
rradius 64.3023
rwrist -34.5729
rhand -18.27 23.237
rfingers 7.12502
rthumb 8.00974 -6.59126
lclavicle -2.8625e-014 5.66536e-014
lhumerus -41.0115 23.3602 68.1819
lradius 103.893
lwrist 66.6897
lhand 22.2015 44.3034
lfingers 7.12502
lthumb 46.5802 67.1523
rfemur -8.92472 -11.6838 10.5168
rtibia 86.532
rfoot -5.31855 2.37357
rtoes -21.8385
lfemur -39.0212 3.22422 -17.7183
ltibia 62.2593
lfoot -28.7773 1.24591
ltoes -31.2156
115
root -22.1639 14.4067 9.81973 12.6866 -3.29284 5.5594
lowerback 14.4633 12.1632 -12.4257
upperback 11.6034 14.6518 -6.9167
thorax 3.75136 6.89612 -2.51557
lowerneck 1.99261 -12.056 -15.4212
upperneck -23.5888 -12.7289 31.8458
head -3.42146 -7.6466 13.5124
rclavicle -5.55603e-014 3.65018e-014
rhumerus -37.6462 2.8691 -91.2278
rradius 64.9114
rwrist -36.3325
rhand -18.2798 23.1341
rfingers 7.12502
rthumb 8.00026 -6.6945
lclavicle -5.55603e-014 3.65018e-014
lhumerus -37.702 22.9214 69.088
lradius 106.058
lwrist 66.5167
lhand 22.2159 44.3811
lfingers 7.12502
lthumb 46.5935 67.2243
rfemur -12.0667 -10.9052 10.5262
rtibia 88.0872
rfoot -6.22268 3.30208
rtoes -21.3668
lfemur -35.1967 4.74287 -18.7584
ltibia 59.7284
lfoot -29.6448 2.14137
ltoes -32.3925
